<svg width="24" height="24" viewBox="0 0 24 24" fill="none" xmlns="http://www.w3.org/2000/svg">
<circle opacity="0.6" cx="12" cy="12" r="12" fill="black"/>
<path fill-rule="evenodd" clip-rule="evenodd" d="M16.2461 6.0436V9.77616C16.2461 10.0072 16.4336 10.1948 16.6647 10.1948C16.8958 10.1948 17.0833 10.0072 17.0833 9.77616V6.0436C17.0833 5.81253 16.8958 5.625 16.6647 5.625C16.4336 5.625 16.2461 5.81253 16.2461 6.0436Z" fill="white"/>
<path fill-rule="evenodd" clip-rule="evenodd" d="M14.7936 8.32158H18.5262C18.7572 8.32158 18.9448 8.13405 18.9448 7.90298C18.9448 7.67191 18.7572 7.48438 18.5262 7.48438H14.7936C14.5625 7.48438 14.375 7.67191 14.375 7.90298C14.375 8.13405 14.5625 8.32158 14.7936 8.32158Z" fill="white"/>
<path fill-rule="evenodd" clip-rule="evenodd" d="M13.3038 7.40625H10.5789C10.2089 7.40625 9.87066 7.61555 9.70545 7.94597L9.1769 9.00365C9.1529 9.05053 9.1049 9.08067 9.05187 9.08067H7.72238C6.87457 9.08067 6.1875 9.76774 6.1875 10.6156V16.1969C6.1875 16.6038 6.34936 16.9945 6.6368 17.2825C6.9248 17.57 7.3155 17.7318 7.72238 17.7318C9.86117 17.7318 14.5138 17.7318 16.6526 17.7318C17.0595 17.7318 17.4502 17.57 17.7382 17.2825C18.0256 16.9945 18.1875 16.6038 18.1875 16.1969C18.1875 14.4963 18.1875 11.4528 18.1875 11.4528C18.1875 11.2217 18 11.0342 17.7689 11.0342C17.5378 11.0342 17.3503 11.2217 17.3503 11.4528C17.3503 11.4528 17.3503 14.4963 17.3503 16.1969C17.3503 16.3823 17.2766 16.5592 17.146 16.6903C17.0148 16.8209 16.8379 16.8946 16.6526 16.8946H7.72238C7.53708 16.8946 7.36015 16.8209 7.22899 16.6903C7.09838 16.5592 7.02471 16.3823 7.02471 16.1969V10.6156C7.02471 10.2304 7.33727 9.91788 7.72238 9.91788H9.05187C9.42192 9.91788 9.76015 9.70858 9.92536 9.37816L10.4539 8.32048C10.4779 8.2736 10.5259 8.24346 10.5789 8.24346H13.3038C13.5348 8.24346 13.7224 8.05592 13.7224 7.82485C13.7224 7.59378 13.5348 7.40625 13.3038 7.40625Z" fill="white"/>
<path fill-rule="evenodd" clip-rule="evenodd" d="M12.1824 10.4531C10.719 10.4531 9.53125 11.6408 9.53125 13.1043C9.53125 14.5677 10.719 15.7555 12.1824 15.7555C13.6459 15.7555 14.8336 14.5677 14.8336 13.1043C14.8336 11.6408 13.6459 10.4531 12.1824 10.4531ZM12.1824 11.2903C13.1837 11.2903 13.9964 12.103 13.9964 13.1043C13.9964 14.1056 13.1837 14.9182 12.1824 14.9182C11.1811 14.9182 10.3685 14.1056 10.3685 13.1043C10.3685 12.103 11.1811 11.2903 12.1824 11.2903Z" fill="white"/>
</svg>
