<svg width="58" height="58" viewBox="0 0 58 58" fill="none" xmlns="http://www.w3.org/2000/svg">
<path d="M24.4589 40.1463L13.4987 29.1861L17.1521 25.5328L24.4589 32.8395L39.0724 18.226L42.7258 21.8794L24.4589 40.1463Z" fill="#75B356"/>
<path fill-rule="evenodd" clip-rule="evenodd" d="M0.582031 29.0026C0.582031 13.3085 13.3046 0.585938 28.9987 0.585938C44.6928 0.585938 57.4154 13.3085 57.4154 29.0026C57.4154 44.6967 44.6928 57.4193 28.9987 57.4193C13.3046 57.4193 0.582031 44.6967 0.582031 29.0026ZM28.9987 52.2526C16.1581 52.2526 5.7487 41.8432 5.7487 29.0026C5.7487 16.162 16.1581 5.7526 28.9987 5.7526C41.8393 5.7526 52.2487 16.162 52.2487 29.0026C52.2487 41.8432 41.8393 52.2526 28.9987 52.2526Z" fill="#75B356"/>
</svg>
