<svg width="19" height="18" viewBox="0 0 19 18" fill="none" xmlns="http://www.w3.org/2000/svg">
<path fill-rule="evenodd" clip-rule="evenodd" d="M10.9754 1.88002L9.79965 0.51803C9.66705 0.364497 9.43528 0.347234 9.28174 0.479828C9.12821 0.612431 9.11095 0.844564 9.24354 0.998106L9.55943 1.36394C5.68432 1.07744 2.26209 3.95127 1.89221 7.83741C1.87311 8.03943 2.02114 8.21868 2.22316 8.23814C2.23491 8.23924 2.24666 8.23961 2.25842 8.23961C2.44575 8.23961 2.60553 8.0971 2.62389 7.9072C2.95815 4.38984 6.07844 1.79627 9.59212 2.10371L9.13335 2.49966C8.97981 2.63227 8.96292 2.86403 9.09552 3.01757C9.16824 3.10169 9.27072 3.14503 9.37357 3.14503C9.45879 3.14503 9.54437 3.11564 9.61342 3.05577L10.9754 1.88002ZM10.2008 9.35291V8.9856C10.2008 7.20452 11.414 5.70186 13.0577 5.26035C12.3227 4.8923 11.8169 4.13197 11.8169 3.25557C11.8169 2.01994 12.8219 1.01498 14.0575 1.01498C15.2928 1.01498 16.2981 2.01994 16.2981 3.25557C16.2981 4.13197 15.7919 4.89267 15.057 5.26035C16.7007 5.70148 17.9143 7.20452 17.9143 8.9856V9.35291H10.2008ZM17.3133 9.82452L18.5185 11.1608C18.6544 11.3114 18.6423 11.5435 18.4917 11.6794C18.4215 11.743 18.3337 11.7742 18.2459 11.7742C18.1457 11.7742 18.0454 11.7331 17.973 11.6526L17.63 11.2725C17.1278 14.8229 14.0693 17.4377 10.5343 17.4377C10.2816 17.4377 10.0266 17.4245 9.77026 17.397C9.56861 17.3757 9.42242 17.195 9.44372 16.9929C9.46539 16.7913 9.64611 16.6447 9.84776 16.6668C13.2968 17.0333 16.409 14.5918 16.9001 11.1869L16.4696 11.5751C16.3187 11.711 16.0865 11.6993 15.9506 11.5483C15.8147 11.3977 15.8268 11.1656 15.9774 11.0297L17.3133 9.82452ZM6.96843 11.4466C6.96843 12.323 6.46227 13.0837 5.72729 13.4514C7.371 13.8925 8.58459 15.3955 8.58459 17.1766V17.5439H0.871094V17.1766C0.871094 15.3955 2.08432 13.8929 3.72803 13.4514C2.99304 13.0833 2.48725 12.323 2.48725 11.4466C2.48725 10.211 3.49221 9.206 4.72784 9.206C5.9631 9.206 6.96843 10.211 6.96843 11.4466Z" fill="#EF3F75"/>
</svg>
