<svg width="160" height="34" viewBox="0 0 160 34" fill="none" xmlns="http://www.w3.org/2000/svg">
<path fill-rule="evenodd" clip-rule="evenodd" d="M15.0835 20.4791H17.0407C17.0407 20.4791 18.5949 13.846 18.192 12.4118C17.789 10.7984 13.9322 10.9776 13.7019 12.5313C13.5292 13.9058 14.623 18.8059 15.0835 20.4791Z" fill="#5CA2D8"/>
<path fill-rule="evenodd" clip-rule="evenodd" d="M16.001 11.3906C17.1523 11.3906 18.1309 11.8687 18.1309 12.4663C18.1309 13.0638 17.1523 13.5419 16.001 13.5419C14.8497 13.5419 13.8711 13.0638 13.8711 12.4663C13.8711 11.9284 14.7921 11.3906 16.001 11.3906Z" fill="#75B4E2"/>
<path fill-rule="evenodd" clip-rule="evenodd" d="M13.9242 13.8317C13.9242 13.8317 13.8666 13.4134 14.3271 13.4731C14.3271 13.4731 15.0179 13.8317 15.4784 13.7719C15.4784 13.7719 16.3995 13.9512 17.2629 13.5926C17.2629 13.5926 17.7235 13.4134 17.8962 13.4731C17.8962 13.4731 18.1264 13.4731 18.0689 13.8317C18.0689 13.8317 17.1478 19.6879 16.7449 19.9867C16.7449 19.9867 15.6511 20.405 15.1906 19.7477C15.133 19.7477 13.8666 13.9512 13.9242 13.8317Z" fill="#75B4E2"/>
<g opacity="0.5">
<path opacity="0.5" fill-rule="evenodd" clip-rule="evenodd" d="M13.698 28.4009C13.9283 29.9546 17.7851 30.1339 18.1881 28.5204C18.5335 27.0862 17.0368 20.4531 17.0368 20.4531H15.0796C14.619 22.1263 13.5253 27.0265 13.698 28.4009Z" fill="url(#paint0_linear_2_5754)"/>
<path opacity="0.5" fill-rule="evenodd" clip-rule="evenodd" d="M15.1414 21.1738C15.6019 20.5763 16.6957 20.9348 16.6957 20.9348C17.0986 21.1738 18.0197 27.0899 18.0197 27.0899C18.0772 27.4484 17.847 27.4484 17.847 27.4484C17.6167 27.5082 17.2138 27.3289 17.2138 27.3289C16.3503 26.9703 15.4293 27.1496 15.4293 27.1496C14.9687 27.1496 14.278 27.4484 14.278 27.4484C13.875 27.5082 13.875 27.0899 13.875 27.0899C13.875 26.9703 15.1414 21.1738 15.1414 21.1738Z" fill="url(#paint1_linear_2_5754)"/>
</g>
<path fill-rule="evenodd" clip-rule="evenodd" d="M13.6397 21.4852C13.4299 21.4126 13.197 21.4618 13.0345 21.6132L6.7722 27.4473C6.65195 27.5594 6.46815 27.5675 6.33847 27.4665C6.13335 27.3068 5.83242 27.4318 5.80069 27.6898L5.63965 28.9993C5.58675 29.4295 5.99335 29.7721 6.4083 29.647L8.54437 29.0033C8.73447 28.946 8.75102 28.6833 8.56963 28.6026C8.4339 28.5422 8.39938 28.3653 8.50244 28.2583L14.0288 22.5215C14.3328 22.2059 14.207 21.6815 13.7929 21.5382L13.6397 21.4852Z" fill="#FFCC00"/>
<path fill-rule="evenodd" clip-rule="evenodd" d="M11.6595 19.5945C11.6738 19.2536 11.4013 18.9694 11.0601 18.9694H2.43415C2.26613 18.9694 2.12992 18.8332 2.12992 18.6652C2.12992 18.4298 1.87405 18.2836 1.67124 18.4031L0.74123 18.951C0.381601 19.1629 0.342842 19.6681 0.665944 19.9324L1.58583 20.6848C1.7113 20.7874 1.89965 20.6981 1.89965 20.536C1.89965 20.4299 1.98568 20.3438 2.09181 20.3438H11.0528C11.3744 20.3438 11.6388 20.0903 11.6522 19.769L11.6595 19.5945Z" fill="#0078E6"/>
<path fill-rule="evenodd" clip-rule="evenodd" d="M13.4309 17.789C13.1888 17.9207 12.8882 17.8705 12.702 17.6674L9.78948 14.4902C9.70039 14.393 9.54662 14.3948 9.45975 14.494C9.3222 14.651 9.06363 14.5479 9.07201 14.3392L9.08832 13.9327C9.09696 13.7175 9.2891 13.5565 9.50253 13.5856L10.857 13.7706C10.9773 13.7871 10.9986 13.9518 10.8865 13.9984C10.8067 14.0315 10.7878 14.136 10.8509 14.1951L13.6208 16.7877C13.9196 17.0673 13.8569 17.5574 13.4974 17.7529L13.4309 17.789Z" fill="#B5B5B5"/>
<path fill-rule="evenodd" clip-rule="evenodd" d="M18.9734 17.9506C19.1978 18.0283 19.4469 17.9663 19.6087 17.7925L22.5338 14.6513C22.6209 14.5576 22.7599 14.5336 22.8734 14.5926C23.0991 14.7097 23.3535 14.4948 23.2758 14.2527L23.1877 13.9784C23.1279 13.7921 22.9429 13.6756 22.749 13.702L21.4583 13.8783C21.3062 13.8991 21.2805 14.1083 21.4231 14.1652C21.5256 14.2061 21.5499 14.3403 21.4681 14.4146L18.7099 16.92C18.3726 17.2264 18.4865 17.7821 18.9171 17.9311L18.9734 17.9506Z" fill="#9E0FB9"/>
<path fill-rule="evenodd" clip-rule="evenodd" d="M18.7745 21.657C19.0042 21.5179 19.2984 21.5484 19.4947 21.7316L25.7201 27.5425C25.8734 27.6856 26.1186 27.6567 26.2344 27.4818C26.3951 27.239 26.767 27.2983 26.8442 27.5791L27.2779 29.1547C27.4034 29.6107 26.9766 30.0259 26.5242 29.8878L24.1474 29.1621C23.9337 29.0968 23.8767 28.821 24.047 28.6764C24.1748 28.5678 24.1806 28.3724 24.0593 28.2566L18.3477 22.7997C18.0621 22.5269 18.1136 22.0572 18.4514 21.8526L18.7745 21.657Z" fill="#36D64F"/>
<path fill-rule="evenodd" clip-rule="evenodd" d="M20.3584 19.6504C20.342 19.3425 20.5872 19.0839 20.8955 19.0839H29.5669C29.7386 19.0839 29.8746 18.9388 29.8636 18.7675C29.8481 18.5255 30.1132 18.3677 30.3185 18.4967L31.261 19.0889C31.6211 19.3152 31.6381 19.8338 31.2935 20.0831L30.5363 20.6309C30.3368 20.7753 30.0546 20.6682 30.0011 20.4277C29.9663 20.271 29.8273 20.1595 29.6667 20.1595H20.8955C20.6096 20.1595 20.3737 19.9359 20.3584 19.6504Z" fill="#FF543A"/>
<path fill-rule="evenodd" clip-rule="evenodd" d="M14.1651 6.18036L13.5319 5.34375C10.8839 6.71818 12.1504 9.88535 12.1504 9.88535L13.0138 9.22801C12.4957 6.59866 14.1651 6.18036 14.1651 6.18036Z" fill="#FF851B"/>
<path fill-rule="evenodd" clip-rule="evenodd" d="M13.0619 4.1491L12.4287 3.3125C8.34156 5.64305 10.1261 10.9615 10.1261 10.9615L11.2198 10.3639C9.72312 6.24063 13.0619 4.1491 13.0619 4.1491Z" fill="#FF851B"/>
<path fill-rule="evenodd" clip-rule="evenodd" d="M19.6254 3.3125L18.9922 4.1491C18.9922 4.1491 22.2734 6.30038 20.8343 10.3042L21.928 10.9017C21.928 10.9017 23.7125 5.64305 19.6254 3.3125Z" fill="#FF851B"/>
<path fill-rule="evenodd" clip-rule="evenodd" d="M18.5317 5.34375L17.8984 6.18036C17.8984 6.18036 19.5103 6.59867 19.0497 9.16825L19.9132 9.82558C19.9132 9.82558 21.1797 6.71818 18.5317 5.34375Z" fill="#FF851B"/>
<path d="M15.994 10.7884C17.2657 10.7884 18.2966 9.71825 18.2966 8.39812C18.2966 7.07799 17.2657 6.00781 15.994 6.00781C14.7223 6.00781 13.6914 7.07799 13.6914 8.39812C13.6914 9.71825 14.7223 10.7884 15.994 10.7884Z" fill="#FF851B"/>
<path fill-rule="evenodd" clip-rule="evenodd" d="M118.921 6.82741C118.921 6.12019 119.495 5.54688 120.202 5.54688H137.563C138.27 5.54688 138.843 6.12019 138.843 6.82741C138.843 7.53463 138.27 8.10795 137.563 8.10795H120.202C119.495 8.10795 118.921 7.53463 118.921 6.82741ZM113.799 16.2714C113.799 15.5641 114.372 14.9908 115.08 14.9908H126.9C127.607 14.9908 128.181 15.5641 128.181 16.2714C128.181 16.9786 127.607 17.5519 126.9 17.5519H115.08C114.372 17.5519 113.799 16.9786 113.799 16.2714ZM108.484 25.7341C108.484 25.0269 109.058 24.4535 109.765 24.4535H127.126C127.833 24.4535 128.407 25.0269 128.407 25.7341C128.407 26.4413 127.833 27.0146 127.126 27.0146H109.765C109.058 27.0146 108.484 26.4413 108.484 25.7341Z" fill="#FF851B"/>
<path fill-rule="evenodd" clip-rule="evenodd" d="M159.571 6.67222C159.571 7.37944 158.998 7.95276 158.29 7.95276L147.175 7.95276L142.102 16.9264C141.753 17.542 140.972 17.7589 140.357 17.4108C139.741 17.0628 139.524 16.2815 139.872 15.6659L145.314 6.04196C145.541 5.64013 145.967 5.39169 146.428 5.39169L158.29 5.39168C158.998 5.39168 159.571 5.965 159.571 6.67222Z" fill="#FF543A"/>
<path fill-rule="evenodd" clip-rule="evenodd" d="M134.102 25.8248C134.102 25.1176 134.675 24.5443 135.382 24.5442L148.729 24.5443L153.789 15.3616C154.13 14.7422 154.909 14.5168 155.528 14.8581C156.148 15.1994 156.373 15.9782 156.032 16.5977L150.607 26.4428C150.381 26.8515 149.952 27.1053 149.485 27.1053L135.382 27.1053C134.675 27.1053 134.102 26.532 134.102 25.8248Z" fill="#FF543A"/>
<path fill-rule="evenodd" clip-rule="evenodd" d="M41.8828 6.85866C41.8828 6.15144 42.4561 5.57812 43.1633 5.57812H62.7206C63.1849 5.57812 63.6129 5.82946 63.839 6.23497C64.0652 6.64049 64.0541 7.13665 63.8101 7.53166L57.6635 17.4814L62.5918 25.3894C62.9659 25.9896 62.7825 26.7794 62.1823 27.1535C61.5821 27.5275 60.7923 27.3442 60.4183 26.744L55.0697 18.1617C54.8123 17.7486 54.8113 17.2254 55.0671 16.8114L60.4244 8.1392H43.1633C42.4561 8.1392 41.8828 7.56588 41.8828 6.85866Z" fill="#0078E6"/>
<path fill-rule="evenodd" clip-rule="evenodd" d="M43.1633 20.7734C43.8706 20.7734 44.4439 21.3468 44.4439 22.054V26.0702C44.4439 26.7774 43.8706 27.3507 43.1633 27.3507C42.4561 27.3507 41.8828 26.7774 41.8828 26.0702V22.054C41.8828 21.3468 42.4561 20.7734 43.1633 20.7734Z" fill="#0078E6"/>
<path fill-rule="evenodd" clip-rule="evenodd" d="M81.0052 5.54688C81.4663 5.54688 81.8919 5.79486 82.1193 6.19609L93.0038 25.4041C93.3525 26.0194 93.1363 26.8009 92.521 27.1496C91.9057 27.4982 91.1243 27.2821 90.7756 26.6668L81.0052 9.42478L71.2347 26.6668C70.886 27.2821 70.1046 27.4982 69.4893 27.1496C68.874 26.8009 68.6578 26.0194 69.0065 25.4041L79.8911 6.19609C80.1184 5.79486 80.544 5.54688 81.0052 5.54688Z" fill="#36D64F"/>
<path fill-rule="evenodd" clip-rule="evenodd" d="M100.846 27.3281C100.385 27.3281 99.9597 27.0801 99.7323 26.6789L88.8477 7.47086C88.4991 6.85556 88.7152 6.07411 89.3305 5.72545C89.9458 5.37678 90.7273 5.59292 91.0759 6.20822L100.846 23.4502L110.617 6.20822C110.966 5.59292 111.747 5.37678 112.362 5.72545C112.978 6.07411 113.194 6.85556 112.845 7.47086L101.96 26.6789C101.733 27.0801 101.308 27.3281 100.846 27.3281Z" fill="#FFCC00"/>
<defs>
<linearGradient id="paint0_linear_2_5754" x1="15.967" y1="20.455" x2="15.967" y2="29.6561" gradientUnits="userSpaceOnUse">
<stop offset="0.2709" stop-color="#2483C5"/>
<stop offset="0.6601" stop-color="#2483C5" stop-opacity="0"/>
</linearGradient>
<linearGradient id="paint1_linear_2_5754" x1="15.9883" y1="20.8272" x2="15.9883" y2="27.4902" gradientUnits="userSpaceOnUse">
<stop offset="0.2709" stop-color="#B6E2EC" stop-opacity="0.5"/>
<stop offset="0.6601" stop-color="#2483C5" stop-opacity="0"/>
</linearGradient>
</defs>
</svg>
