<svg width="386" height="304" viewBox="0 0 386 304" fill="none" xmlns="http://www.w3.org/2000/svg">
<path opacity="0.95" d="M225.825 139.539H150.526C144.577 139.539 139.748 134.71 139.748 128.761V53.4616C139.748 47.5126 144.577 42.6836 150.526 42.6836H225.825C231.774 42.6836 236.603 47.5126 236.603 53.4616V128.761C236.585 134.728 231.774 139.539 225.825 139.539Z" fill="url(#paint0_linear_18671_394018)"/>
<path d="M210.584 117.488H165.746V119.71H210.584V117.488Z" fill="#96BFE6"/>
<path d="M204.232 124.484H172.1V126.706H204.232V124.484Z" fill="#96BFE6"/>
<path d="M372.384 231.86H265.209C258.195 231.86 252.521 226.186 252.521 219.172V88.9728C252.521 81.9588 258.195 76.2852 265.209 76.2852H372.384C379.398 76.2852 385.071 81.9588 385.071 88.9728V219.172C385.071 226.186 379.398 231.86 372.384 231.86Z" fill="url(#paint1_linear_18671_394018)"/>
<path d="M323.138 168.07H312.617V170.017H323.138V168.07Z" fill="#4598E6"/>
<path d="M333.898 185.902H272.719V189.666H333.898V185.902Z" fill="#96BFE6"/>
<path d="M322.184 204.008H272.719V207.772H322.184V204.008Z" fill="#96BFE6"/>
<path d="M301.711 194.953H272.719V198.717H301.711V194.953Z" fill="#96BFE6"/>
<path d="M349.891 91.8008V93.7103H361.11V104.231H363.019V91.8008H349.891V91.8008ZM273.766 104.231H275.675V93.7103H286.894V91.8008H273.784V104.231H273.766ZM361.092 158.507V169.028H349.873V170.938H362.983V158.507H361.092ZM275.675 158.507H273.766V170.938H286.876V169.028H275.657V158.507H275.675Z" fill="#4598E6"/>
<path d="M357.07 208.062C350.883 208.062 345.852 203.031 345.852 196.844C345.852 190.656 350.883 185.625 357.07 185.625C363.258 185.625 368.289 190.656 368.289 196.844C368.271 203.031 363.24 208.062 357.07 208.062ZM357.07 187.81C352.076 187.81 348.037 191.868 348.037 196.844C348.037 201.838 352.094 205.877 357.07 205.877C362.046 205.877 366.104 201.82 366.104 196.844C366.104 191.849 362.046 187.81 357.07 187.81Z" fill="#4598E6"/>
<path d="M356.354 201.252L351.25 196.166L352.792 194.624L356.354 198.186L361.349 193.191L362.873 194.734L356.354 201.252Z" fill="#4598E6"/>
<path d="M181.905 304C282.368 304 363.809 300.186 363.809 295.481C363.809 290.775 282.368 286.961 181.905 286.961C81.4415 286.961 0 290.775 0 295.481C0 300.186 81.4415 304 181.905 304Z" fill="url(#paint2_linear_18671_394018)"/>
<path opacity="0.95" d="M220.794 46.3203H155.52V102.322H220.794V46.3203Z" fill="url(#paint3_linear_18671_394018)"/>
<path d="M213.1 80.4161C210.952 74.7241 205.792 72.1168 203.35 71.3089C202.487 71.0151 200.926 70.5194 199.292 69.9869C196.355 69.0321 193.123 68.0039 193.123 68.0039H182.969C182.969 68.0039 179.444 69.179 175.717 70.501C172.265 71.7129 168.647 73.0349 167.417 73.6408C164.865 74.9077 160.568 84.0332 159.706 85.0798C159.265 85.6123 157.263 89.1744 155.299 93.1404H166.242C167.399 91.1574 168.299 89.6151 168.299 89.6151C168.299 89.6151 168.996 91.139 169.823 93.1404H204.892C205.443 90.8085 205.792 87.8707 205.792 87.8707C205.792 87.8707 207.665 90.423 209.721 93.1404H219.82C217.36 88.9908 214.312 83.6293 213.1 80.4161Z" fill="#385369"/>
<path d="M189.268 40.0761C189.268 40.0761 197.218 41.3247 196.006 53.7552C194.794 66.1858 187.78 65.1576 187.321 65.1576C186.844 65.1392 180.289 65.3779 179.775 50.2115C179.756 50.1932 179.536 38.9745 189.268 40.0761Z" fill="#EEA886"/>
<path d="M196.115 50.2467C196.115 50.2467 196.978 49.3103 197.308 50.2651C197.621 51.2015 196.115 55.4062 196.06 55.5899C196.06 55.5899 195.895 55.9571 195.693 55.7551C195.491 55.5531 196.115 50.2467 196.115 50.2467Z" fill="#EEA886"/>
<path d="M179.976 50.0822C179.976 50.0822 179.132 49.1274 178.783 50.0638C178.452 51.0002 179.848 55.2233 179.921 55.4253C179.921 55.4253 180.068 55.7925 180.289 55.5906C180.491 55.4069 179.976 50.0822 179.976 50.0822Z" fill="#EEA886"/>
<path d="M196.115 52.138L194.977 53.662C194.977 53.662 195.014 50.3203 194.83 49.8062C194.647 49.292 194.371 47.6946 194.224 47.309C194.077 46.9418 187.394 45.069 181.518 47.8599C181.518 47.8599 181.775 50.2652 181.206 50.4672C180.637 50.6875 180.912 54.3781 180.912 54.3781L179.976 53.3315C179.976 53.3315 178.544 43.7653 178.893 42.7738C179.242 41.7823 180.38 35.7782 192.462 39.3403C192.462 39.3403 196.226 38.5507 196.978 41.1397C197.75 43.7286 196.115 52.138 196.115 52.138Z" fill="#434343"/>
<path d="M194.115 67.7619C194.115 67.7435 193.087 67.2661 193.087 67.2661C192.591 66.1645 192.959 61.4823 192.959 61.4823C192.959 61.4823 182.842 58.9118 183.135 60.8764C183.429 62.8411 182.272 67.413 182.272 67.413L177.076 69.9836C177.076 69.9836 182.603 84.8378 188.956 82.9099C195.309 81.0003 197.714 69.4327 197.714 69.4327L194.115 67.7619Z" fill="#EEA886"/>
<path d="M183.281 63.0641C183.281 63.0641 184.915 65.1756 187.743 65.1756C189.598 65.1756 190.938 64.6615 192.792 62.8438C192.792 62.8438 191.984 66.2773 187.761 66.5894C187.761 66.6078 184.695 66.9934 183.281 63.0641Z" fill="#A77860"/>
<path d="M154.089 112.931C154.089 112.931 159.927 115.796 158.477 123.562C157.026 131.329 156.402 132.376 158.018 135.405C159.634 138.435 161.543 151.398 160.093 153.84C158.642 156.301 142.099 143.062 139.822 131.954C137.527 120.845 141.272 115.906 142.594 114.07C143.898 112.215 148.929 110.324 154.089 112.931Z" fill="#0E2D3D"/>
<path d="M151.883 293.219H153.205V286.977C153.205 286.977 155.794 288.702 157.429 291.089C159.063 293.476 161.303 293.274 164.7 293.128C168.115 292.981 167.95 291.604 167.656 289.676C167.344 287.748 163.892 287.123 162.772 286.83C161.652 286.517 159.118 282.148 158.292 281.083C157.171 279.632 156.584 278.237 156.584 278.237C156.584 278.237 155.941 275.648 152.802 278.237C149.643 280.826 150.561 285.82 150.91 286.279C151.259 286.738 151.883 293.219 151.883 293.219Z" fill="#163342"/>
<path d="M158.55 286.812C159.725 287.584 162.773 286.812 162.773 286.812C161.91 285.692 156.585 278.219 156.585 278.219C153.354 276.328 152.068 278.935 152.068 278.935C153.39 279.339 157.375 286.06 158.55 286.812Z" fill="#EEA886"/>
<path d="M192.573 171.706C192.573 171.706 194.685 172.11 195.419 171.118C196.043 170.274 197.439 169.631 197.879 169.429C198.467 169.154 199.936 167.666 200.266 168.401C200.597 169.135 197.953 170.971 197.476 171.467C196.998 171.963 200.083 172.183 200.597 172.661C201.129 173.138 200.468 178.224 198.375 177.82C196.282 177.416 194.299 175.617 193.913 175.617C193.528 175.617 192.371 175.397 192.371 175.397L192.573 171.706Z" fill="#EEA886"/>
<path d="M200.137 172.457C200.137 172.457 206.471 174.091 206.802 174.55C207.132 175.009 207.022 175.358 206.416 175.23C205.81 175.101 200.247 173.834 200.247 173.834C200.247 173.834 207.408 177.029 207.775 177.341C207.977 177.525 207.811 178.204 207.481 178.149C207.15 178.112 199.861 175.34 199.861 175.34C199.861 175.34 206.545 178.333 206.765 178.7C206.949 179.012 206.636 179.581 206.122 179.398C205.608 179.214 199.237 176.772 199.237 176.772C199.237 176.772 203.974 179.251 203.974 179.673C203.974 179.93 203.864 180.499 202.652 179.82C201.459 179.141 198.447 177.837 198.447 177.837L200.137 172.457Z" fill="#EEA886"/>
<path d="M134.735 293.641H135.543V289.069C135.543 289.069 136.994 290.556 137.655 292.741C138.316 294.926 140.684 295.587 144.302 295.477C147.919 295.367 147.974 293.953 147.662 291.805C147.349 289.675 144.302 288.555 144.302 288.555C142.924 287.324 139.509 282.275 139.509 282.275C139.509 282.275 137.324 281.688 135.598 283.083C133.872 284.46 134.423 287.6 134.46 288.408C134.533 289.216 134.735 293.641 134.735 293.641Z" fill="#163342"/>
<path d="M137.232 184.539C137.232 184.539 132.935 190.139 131.76 196.786C130.585 203.433 132.458 225.723 132.403 228.992C132.348 232.278 129.3 240.449 129.906 246.618C130.512 252.788 132.917 283.58 132.917 283.58L139.509 282.276C139.509 282.276 139.123 250.897 139.509 248.308C139.894 245.719 140.666 236.244 140.812 235.179C140.959 234.114 150.507 206.058 150.507 201.266C150.507 196.474 147.606 176.736 137.232 184.539Z" fill="#1D3B54"/>
<path d="M158.861 186.726C158.861 186.726 165.93 213.717 166.775 217.463C167.62 221.209 168.832 224.293 168.832 225.872C168.832 229.563 167.454 235.475 167.454 235.475L158.476 278.441H149.92C149.92 278.441 154.693 252.661 154.822 247.63C154.95 242.581 158.843 235.402 158.072 233.272C157.301 231.142 145.788 206.483 145.788 206.483C145.788 206.483 137.048 178.886 158.861 186.726Z" fill="#1D3B54"/>
<path d="M144.301 288.557L139.509 282.277L135.598 283.085C135.598 283.085 136.644 285.894 138.554 288.006C140.812 290.503 144.301 288.557 144.301 288.557Z" fill="#EEA886"/>
<path d="M155.942 140.859C155.942 140.859 158.861 141.135 161.065 143.503C163.268 145.872 165.343 149.636 165.912 150.885C166.481 152.133 174.579 163.811 175.001 164.068C175.423 164.325 179.481 165.684 182.18 166.602C186.33 167.997 194.666 171.027 194.666 171.027L193.013 176.26C193.013 176.26 177.333 171.137 173.422 170.164C168.63 168.989 157.576 154.814 157.576 154.814C157.576 154.814 149.314 145.156 155.942 140.859Z" fill="#A7BAEB"/>
<path d="M150.838 138.803C150.838 138.803 154.62 140.584 155.924 140.841C157.227 141.098 162.332 147.708 163.213 150.132C164.113 152.537 163.213 156.172 161.377 160.414C159.541 164.655 161.267 166.087 160.44 170.329C159.596 174.57 159.871 190.471 160.037 192.84C160.202 195.208 135.488 198.77 130.604 194.474C130.604 194.474 133.909 180.152 137.819 176.058C138.664 175.176 138.572 169.282 138.003 167.813C137.434 166.345 130.916 155.383 130.916 155.383C130.916 155.383 130.438 144.256 133.284 142.053C135.745 140.143 142.465 139.464 143.677 139.041C144.87 138.619 148.377 138.435 150.838 138.803Z" fill="#FF6600"/>
<path d="M152.654 134.451C152.654 134.451 152.544 135.498 152.416 136.893C152.361 137.444 152.306 138.068 152.269 138.693C152.122 140.584 151.993 142.603 152.067 143.632C152.067 143.632 148.138 147.561 143.676 139.041C143.676 139.041 145.549 135.534 144.135 130.742C142.703 125.95 152.654 134.451 152.654 134.451Z" fill="#EEA886"/>
<path d="M163.636 161.993C163.636 161.993 164.572 155.714 163.581 151.895C163.581 151.895 163.581 155.181 161.781 159.845L163.636 161.993Z" fill="#183C59"/>
<path d="M140.646 139.646C140.646 139.646 143.346 147.615 150.764 147.027C158.181 146.439 154.27 140.288 154.27 140.288C154.27 140.288 152.416 139.223 151.902 139.132C151.388 139.04 143.713 138.93 143.713 138.93L140.646 139.646Z" fill="#EEA886"/>
<path d="M154.271 140.309C154.271 140.309 158.146 151.05 158.146 161.993C158.146 172.936 158.458 190.765 159.817 196.402C161.175 202.039 165.031 219.445 165.031 219.445L168.061 217.885C168.061 217.885 160.79 190.086 160.239 188.084C159.688 186.083 160.661 164.913 161.175 163.132C161.689 161.351 163.911 153.474 163.562 151.27C163.122 148.516 160.551 144.422 156.383 140.915L154.271 140.309Z" fill="#A7BAEB"/>
<path d="M142.117 139.316C142.117 139.316 144.522 147.046 145.752 156.943C146.982 166.84 142.006 212.78 138.665 223.209L125.738 221.116C125.738 221.116 128.529 188.653 132.293 182.741C136.057 176.828 137.269 171.595 133.193 159.275C129.117 146.936 134.974 140.84 134.974 140.84C134.974 140.84 140.978 139.445 142.117 139.316Z" fill="#A7BAEB"/>
<path d="M156.053 172.091L140.39 199.247L122.947 189.167L137.948 161.625L156.053 172.091Z" fill="#616161"/>
<path d="M154.18 173.011L140.244 197.137L124.766 188.195L138.096 163.738L154.18 173.011Z" fill="#E0CEC7"/>
<path d="M149.039 170.842L150.012 169.152L143.751 165.535L142.539 167.096L149.039 170.842Z" fill="#616161"/>
<path d="M148.285 190.123C148.285 190.123 147.569 190.123 147.256 189.976C147.256 189.976 146.706 189.664 146.302 189.462C146.173 189.407 146.063 189.352 145.99 189.315C145.677 189.205 144.943 189.058 144.245 188.581C143.548 188.103 141.105 185.257 141.105 185.257L142.262 183.495L143.107 181.695C143.107 181.695 148.266 182.026 148.964 182.393C149.038 182.43 149.093 182.466 149.148 182.503C149.699 182.87 149.974 183.385 150.231 183.623C150.323 183.715 151.259 184.615 151.222 185C151.186 185.533 150.929 185.9 150.598 186.065C150.598 186.065 150.47 187.112 149.956 187.608C149.956 187.608 149.864 188.581 149.056 189.003C149.056 189.003 148.854 189.976 148.285 190.123Z" fill="#EEA886"/>
<path d="M137.654 140.858C137.654 140.858 132.899 139.499 130.163 144.732C127.427 149.983 127.446 152.224 127.078 154.776C126.729 157.199 125.187 163.791 125.022 164.489C124.857 165.168 121.35 173.302 122.965 176.148C124.581 179.013 141.07 187.422 140.959 188.046C140.849 188.671 143.805 181.693 143.805 181.693C143.805 181.693 137.14 177.984 136.039 176.828C134.258 174.973 130.53 172.972 131.283 170.658C132.183 167.941 134.9 158.815 135.524 157.475C136.185 156.134 141.675 142.566 137.654 140.858Z" fill="#A7BAEB"/>
<path d="M153.243 113.793C153.243 113.793 161.726 116.455 157.117 131.089C152.509 145.723 140.941 129.4 142.153 120.477C143.346 111.571 153.243 113.793 153.243 113.793Z" fill="#EEA987"/>
<path d="M157.98 122.334C157.98 122.334 153.775 126.465 146.724 126.979C146.724 126.979 144.007 130.156 143.805 131.404C143.805 131.404 137.507 120.682 145.255 114.255C152.967 107.829 160.807 119.69 157.98 122.334Z" fill="#0E2D3D"/>
<path d="M146.799 127.271C146.744 126.206 146.083 123.783 144.504 124.462C142.925 125.141 144.596 130.081 145.642 129.768C145.661 129.768 146.928 129.787 146.799 127.271Z" fill="#EEA987"/>
<path d="M152.399 136.895C152.344 137.445 152.289 138.07 152.253 138.694C152.253 138.694 148.507 138.474 146.01 132.91C146.175 133.149 148.911 137.17 152.399 136.895Z" fill="#A77860"/>
<path d="M59.5825 270.656C65.0174 266.837 71.3704 240.195 71.756 224.331C71.9579 216.197 74.3449 212.819 76.4748 209.826C78.4945 206.961 80.2572 204.501 79.229 198.846C77.2827 188.031 82.4055 183.349 82.4606 183.312L81.873 182.633C81.6527 182.835 76.3095 187.645 78.3476 199.011C79.3024 204.299 77.7234 206.521 75.7404 209.312C73.6472 212.249 71.0582 215.903 70.8563 224.313C70.4523 241.334 63.9524 266.489 59.0684 269.922L59.5825 270.656Z" fill="url(#paint4_linear_18671_394018)"/>
<path d="M48.1977 262.89C47.6836 261.733 47.1511 260.521 46.5452 259.254C43.4422 252.699 40.688 251.616 36.1344 249.835C35.0144 249.394 33.7658 248.898 32.3703 248.274C25.8521 245.336 27.1007 241.022 28.2207 237.202C28.3676 236.67 28.5328 236.137 28.6614 235.605C29.2306 233.365 28.1289 232.245 26.458 230.537C25.2095 229.27 23.6671 227.691 22.4736 225.212C21.17 222.495 21.831 221.026 22.6205 220.292C24.273 218.731 28.0922 219.006 31.691 220.971C32.811 221.577 33.7291 222.55 34.7022 223.578C36.9974 225.984 39.8617 228.977 47.096 229.013C51.2273 229.032 53.4857 229.601 54.6425 230.923C55.9645 232.41 55.7258 234.65 55.3769 237.735C55.2484 238.8 55.1199 240.012 55.0464 241.334C54.5507 249.137 59.1594 254.774 59.2144 254.829C61.9686 258.116 65.3654 264.909 63.8965 269.114C63.2906 270.877 61.9135 271.979 59.8204 272.401C58.9941 272.566 58.2229 272.658 57.5252 272.658C52.4942 272.64 50.6398 268.453 48.1977 262.89ZM31.3054 221.761C28.0922 219.998 24.6403 219.649 23.2815 220.934C22.2533 221.907 22.7307 223.597 23.3183 224.827C24.4383 227.177 25.8705 228.628 27.119 229.913C28.8633 231.694 30.2404 233.108 29.5427 235.844C29.4142 236.376 29.2489 236.927 29.0837 237.459C27.982 241.26 26.9171 244.841 32.7376 247.466C34.0963 248.072 35.3632 248.568 36.4649 249.009C41.0736 250.808 44.1032 252.002 47.3531 258.887C47.959 260.172 48.4915 261.366 49.0056 262.541C51.8149 268.912 53.5225 272.768 59.6551 271.519C61.4178 271.171 62.5562 270.253 63.0703 268.82C64.3556 265.13 61.2709 258.667 58.5534 255.417C58.3515 255.178 53.6693 249.468 54.1835 241.279C54.2753 239.938 54.4038 238.726 54.5323 237.643C54.8445 234.779 55.0832 232.722 54.0182 231.529C53.0451 230.445 50.9152 229.95 47.1327 229.931C39.5128 229.895 36.52 226.755 34.0963 224.221C33.1231 223.193 32.2969 222.311 31.3054 221.761Z" fill="url(#paint5_linear_18671_394018)"/>
<path d="M59.7473 277.836L60.647 277.781C60.6102 276.936 59.4718 257.051 51.4847 251.249C42.7264 244.859 39.9722 238.01 38.6502 233.401C37.1079 227.985 29.2126 226.534 28.8821 226.461L28.7168 227.342C28.7902 227.361 36.3918 228.756 37.7872 233.64C39.146 238.377 41.9736 245.428 50.9522 251.965C58.6089 257.528 59.7473 277.634 59.7473 277.836Z" fill="url(#paint6_linear_18671_394018)"/>
<path d="M58.2407 282.299C56.3678 281.362 56.4229 277.598 56.5331 271.906C56.6616 264.709 56.8452 254.867 53.0812 245.797C49.0784 236.175 52.6405 233.366 56.0924 230.63C59.9483 227.582 63.6021 224.7 56.6065 211.718C53.3933 205.751 52.3651 201.711 53.3933 199.012C54.4032 196.35 57.2492 195.303 60.2604 194.202C65.4566 192.31 71.3322 190.144 70.5794 179.164C70.3407 175.804 70.7447 173.729 71.828 172.646C73.0031 171.47 74.729 171.599 76.7488 171.746C79.7784 171.966 83.2119 172.223 86.2048 168.312C86.517 167.339 89.3813 158.636 92.7965 157.13C93.5126 156.818 94.2287 156.818 94.8897 157.149C97.2583 158.287 98.617 159.627 99.076 161.243C99.8656 164.071 97.7907 167.266 95.4038 170.956C91.6397 176.758 87.3616 183.35 91.7866 191.19C97.6438 201.546 94.5592 205.182 90.2626 210.194C87.8022 213.077 85.0297 216.327 83.1568 221.633C81.6696 225.911 84.2218 229.988 86.6822 233.917C89.7852 238.856 92.9801 243.979 86.2415 248.404C75.0963 255.73 64.0795 279.673 63.9694 279.912L63.9326 280.004L63.8408 280.077C61.7844 281.693 60.2971 282.446 59.1587 282.446C58.8282 282.501 58.5161 282.446 58.2407 282.299ZM85.7458 247.706C91.7499 243.759 89.0508 239.444 85.9294 234.449C83.469 230.52 80.6781 226.058 82.3122 221.395C84.2218 215.923 87.0678 212.6 89.5833 209.662C93.788 204.741 96.5605 201.491 90.9971 191.686C86.2966 183.368 90.9236 176.244 94.6326 170.534C96.9094 167.027 98.8924 163.979 98.1947 161.555C97.8091 160.197 96.5973 159.04 94.4857 158.03C94.0634 157.828 93.6227 157.828 93.1453 158.03C89.9689 159.407 87.0494 168.624 87.0311 168.735L87.0127 168.808L86.9576 168.863C83.6526 173.215 79.7784 172.939 76.6753 172.701C74.8209 172.572 73.352 172.462 72.4523 173.343C71.5709 174.206 71.2588 176.116 71.4607 179.164C72.2686 190.823 65.7688 193.192 60.5542 195.101C57.6164 196.166 55.1009 197.103 54.2196 199.379C53.3015 201.822 54.293 205.622 57.3777 211.333C64.7405 224.993 60.6276 228.243 56.6249 231.383C53.2831 234.009 50.1434 236.487 53.8891 245.484C57.7266 254.72 57.5429 264.672 57.4144 271.943C57.3226 276.901 57.2492 280.83 58.6263 281.509C59.4342 281.913 60.9581 281.234 63.1798 279.508C64.0795 277.562 74.6372 255.014 85.7458 247.706Z" fill="url(#paint7_linear_18671_394018)"/>
<path d="M40.6518 177.97C46.3254 176.024 45.1503 186.967 47.5373 195.046C49.9426 203.143 74.1978 198.571 64.0256 218.824C53.8352 239.076 76.9152 225.599 70.0114 243.281C63.126 260.963 69.4055 279.856 61.9141 275.064C54.4227 270.253 57.7094 248 49.9242 245.356C42.1391 242.712 40.8538 239.627 48.5839 232.429C56.2956 225.232 28.3682 218.108 35.272 203.584C42.1391 189.06 34.0969 180.21 40.6518 177.97Z" fill="url(#paint8_linear_18671_394018)"/>
<path d="M59.3054 273.889C60.0215 270.859 66.1174 244.235 60.4254 241.004C55.4128 238.158 55.5414 227.123 56.3125 216.712C57.0102 207.495 45.1489 203.18 44.6531 202.996L44.3594 203.841C44.4695 203.877 56.0555 208.101 55.4312 216.638C54.6233 227.343 54.5498 238.69 59.9848 241.775C64.2997 244.217 60.3336 265.626 58.4241 273.668L59.3054 273.889Z" fill="#3F4A64"/>
<path d="M80.7148 264.414L72.6175 295.132H54.5133L46.416 264.414H80.7148Z" fill="url(#paint9_linear_18671_394018)"/>
<path d="M80.7148 264.414C80.7148 264.414 62.886 267.756 62.886 295.151H54.5133L46.416 264.414H80.7148Z" fill="url(#paint10_linear_18671_394018)"/>
<path opacity="0.95" d="M308.413 70.9244H254.963C250.079 70.9244 246.113 66.9584 246.113 62.0743V15.6939C246.113 10.8098 250.079 6.84375 254.963 6.84375H308.413C313.297 6.84375 317.263 10.8098 317.263 15.6939V62.0743C317.263 66.9584 313.297 70.9244 308.413 70.9244Z" fill="url(#paint11_linear_18671_394018)"/>
<path d="M284.233 58.7852H278.596V59.8317H284.233V58.7852Z" fill="#4598E6"/>
<path d="M286.51 1.22356C286.51 1.22356 291.063 3.72068 289.613 9.85333C288.162 15.986 287.611 16.8122 288.786 19.291C289.962 21.7698 290.99 32.1622 289.741 34.0718C288.493 35.9813 275.805 24.7994 274.391 15.8574C272.978 6.91553 276.154 3.11476 277.274 1.70095C278.394 0.287134 282.507 -1.05324 286.51 1.22356Z" fill="#344052"/>
<path d="M295.048 51.9553H290.182C289.943 49.5499 289.723 47.8791 289.778 47.6404C289.852 47.2364 284.931 34.3469 284.472 33.2635C284.013 32.1986 282.213 29.3342 281.975 26.6535C281.736 23.9544 285.243 22.8711 285.243 22.8711C289.98 23.7157 291.596 30.2707 291.596 30.2707C291.596 30.2707 293.579 43.5642 294.589 47.3099C294.846 48.283 294.993 49.9723 295.048 51.9553Z" fill="#EEA886"/>
<path d="M292.605 33.4853L285.352 36.5332C285.352 36.5332 278.687 19.9898 284.269 21.8442C289.851 23.6987 292.348 27.1506 292.605 33.4853Z" fill="#3F4A64"/>
<path d="M290.989 41.2685C290.769 42.9026 289.906 48.7231 290.108 50.3022C290.145 50.5592 290.255 51.1652 290.402 51.973H272.922C273.381 50.3205 273.803 48.8516 274.06 47.9887C274.905 45.1794 274.097 44.4266 273.675 42.1682C273.51 41.2868 272.922 39.6159 272.279 37.7247C272.059 37.1005 271.839 36.4395 271.637 35.7785C270.866 33.3915 270.517 30.9495 270.296 29.5356C269.25 22.8154 274.409 22.1728 274.409 22.1728C276.337 21.8239 279.697 20.7773 279.697 20.7773L284.949 21.879C284.949 21.879 285.444 22.0626 286.179 22.6135C286.528 22.8705 286.932 23.2194 287.354 23.6417C287.923 24.2293 289.08 25.9185 290.218 27.773C290.567 28.3422 290.916 28.9297 291.247 29.4989C292.311 31.3534 293.083 32.8407 293.046 34.5299C293.046 36.164 291.21 39.6343 290.989 41.2685Z" fill="#3F4A64"/>
<path d="M284.948 21.8433C284.948 21.8433 288.235 27.4802 287.023 27.9025C285.793 28.3248 279.348 26.8927 276.814 21.5863C276.814 21.5863 281.056 19.6583 284.948 21.8433Z" fill="#EEA886"/>
<path d="M284.47 24.4153C284.47 24.4153 281.551 25.6455 278.889 21.5693C278.889 21.5693 279.605 16.9423 278.099 14.2615C276.594 11.5808 284.672 17.4747 284.672 17.4747C284.672 17.4747 284.544 18.0256 284.397 18.8335C284.324 19.2558 284.25 19.7332 284.195 20.2473C284.158 20.6696 284.122 21.1286 284.103 21.5693C284.085 22.6342 284.158 23.6808 284.47 24.4153Z" fill="#EEA886"/>
<path d="M277.2 30.7305C276.594 33.8335 272.279 37.7077 272.279 37.7077C272.059 37.0834 271.839 36.4225 271.637 35.7614C274.611 33.8519 277.2 30.7305 277.2 30.7305Z" fill="#393D63"/>
<path d="M276.118 33.1913C275.842 34.3296 274.575 45.7503 274.722 46.1543C274.796 46.3746 275.42 49.0186 276.026 51.9564H270.389C269.82 50.0652 269.471 48.4861 269.544 47.6048C269.911 43.7489 268.589 31.4469 268.589 31.4469C268.589 31.4469 267.414 24.0106 273.584 23.0742C273.584 23.0742 277.238 23.5516 277.458 26.2507C277.697 28.9498 276.393 32.0712 276.118 33.1913Z" fill="#EEA886"/>
<path d="M268.148 34.7707L275.805 36.5518C275.805 36.5518 281.882 24.7455 276.411 22.5972C270.645 20.3388 266.771 28.3443 268.148 34.7707Z" fill="#3F4A64"/>
<path d="M285.812 1.86559C285.812 1.86559 292.477 4.30764 288.254 15.8018C284.031 27.2959 275.419 13.8371 276.723 6.7864C278.008 -0.28267 285.812 1.86559 285.812 1.86559Z" fill="#EEA987"/>
<path d="M289.263 8.86114C289.263 8.86114 285.756 12.0009 280.101 12.1478C280.101 12.1478 278.779 15.361 278.577 16.3525C278.577 16.3525 273.013 6.78632 279.403 1.95732C285.83 -2.89004 291.632 6.85977 289.263 8.86114Z" fill="#344052"/>
<path d="M280.872 12.8275C280.872 11.9829 280.431 10.0182 279.146 10.4956C277.861 10.973 279.018 14.9757 279.862 14.7738C279.862 14.7738 280.891 14.8472 280.872 12.8275Z" fill="#EEA987"/>
<path d="M284.141 21.4008C281.02 20.5378 279.808 17.5449 279.771 17.4531C282.324 20.7398 284.233 20.2624 284.233 20.2624C284.178 20.7031 284.178 20.9601 284.141 21.4008Z" fill="#A77860"/>
<path d="M298.591 18.4285V19.4567H304.613V25.112H305.642V18.4469H298.591V18.4285ZM257.737 25.0936H258.765V19.4384H264.788V18.4102H257.755V25.0936H257.737ZM304.613 54.2329V59.8881H298.591V60.9164H305.623V54.2513H304.613V54.2329ZM258.747 54.2329H257.719V60.898H264.751V59.8698H258.729V54.2329H258.747Z" fill="#4598E6"/>
<path d="M191.949 106.672H184.402V108.067H191.949V106.672Z" fill="#4598E6"/>
<path d="M210.749 52.7617V54.1205H218.791V61.6669H220.15V52.7617H210.749ZM156.18 61.6669H157.538V54.1205H165.581V52.7617H156.18V61.6669ZM218.791 100.593V108.139H210.749V109.498H220.15V100.593H218.791ZM157.538 100.593H156.18V109.498H165.581V108.139H157.538V100.593Z" fill="#4598E6"/>
<path d="M356.555 157.641H350.165C350.055 157.384 349.963 157.163 349.871 156.98C347.98 152.518 338.23 142.273 338.23 142.273C338.23 142.273 338.23 142.273 338.23 142.291C338.23 142.291 338.23 142.291 338.23 142.309C338.23 142.309 338.23 142.309 338.23 142.328C338.23 142.346 338.212 142.364 338.212 142.364C338.212 142.383 338.194 142.419 338.194 142.456C338.194 142.474 338.175 142.493 338.175 142.511C338.175 142.53 338.157 142.548 338.157 142.548C337.753 144.035 335.788 151.471 334.815 157.641H291.666C291.575 157.072 291.446 156.521 291.318 156.025C290.932 154.501 290.657 152.977 290.491 151.563C290.491 151.49 290.473 151.416 290.473 151.361C290.436 151.104 290.418 150.847 290.381 150.59C290.014 146.716 290.289 143.741 290.308 143.448C290.179 143.705 289.316 146.9 288.178 150.847C287.553 153.014 286.837 155.401 286.14 157.659H275.949L288.729 120.772C289.004 120.551 292.327 118.954 294.751 117.797C297.211 116.622 300.204 114.896 302.885 113.427C304.262 112.674 305.566 111.995 306.686 111.481L306.851 111.407C308.706 110.563 309.954 109.993 309.954 109.993C309.991 109.993 310.285 109.957 310.762 109.92C313.351 109.663 321.412 108.91 324.111 108.763C324.331 108.745 324.515 108.745 324.662 108.727C324.79 108.727 324.882 108.727 324.937 108.727C325.267 108.745 326.938 109.332 329.123 110.159C329.215 110.195 329.289 110.214 329.38 110.251C329.491 110.287 329.582 110.324 329.692 110.361C329.876 110.434 330.078 110.508 330.262 110.581C330.647 110.728 331.051 110.893 331.455 111.058C331.602 111.114 331.731 111.169 331.877 111.224C336.247 112.95 341.242 115.098 342.435 115.961C343.225 116.53 345.667 121.139 348.513 126.831C351.579 136.581 355.325 150.682 356.555 157.641Z" fill="#DECBC4"/>
<path d="M324.881 107.424C324.771 113.226 313.534 116.403 313.534 116.403C313.534 116.403 308.834 110.509 309.954 109.958C310.394 109.738 310.578 108.856 310.633 107.865C310.688 106.928 310.633 105.9 310.578 105.239C310.541 104.835 310.505 104.56 310.505 104.56C310.505 104.56 312.102 102.87 314.158 100.851C317.721 97.3254 322.623 92.8086 322.641 94.6079C322.641 94.6998 322.623 94.8099 322.605 94.9568C321.742 98.9779 324.881 107.424 324.881 107.424Z" fill="#EEA886"/>
<path d="M320.567 98.9219C320.548 98.9586 320.071 99.6747 319.263 100.685C317.537 102.851 314.306 106.413 310.652 107.845C310.707 106.909 310.652 105.881 310.597 105.22C310.229 105.201 309.844 105.165 309.477 105.091C310.468 103.347 311.919 101.511 311.919 101.511L314.177 100.831L320.567 98.9219Z" fill="#A77860"/>
<path d="M322.716 94.682C321.743 96.7935 320.825 98.3359 320.568 98.9418C320.403 99.3457 319.925 99.9884 319.264 100.704C317.41 102.706 313.976 105.332 310.598 105.24C310.23 105.221 309.845 105.185 309.478 105.111C308.119 104.817 306.503 104.175 305.622 102.449C298.608 88.733 303.694 77.5143 303.694 77.5143C303.694 77.5143 322.845 72.0977 325.838 77.8631C327.912 81.8842 324.993 89.7245 322.716 94.682Z" fill="#EEA886"/>
<path d="M303.658 77.4943C303.658 77.4943 301.877 77.4025 301.436 74.024C300.995 70.7007 301.877 69.7642 301.877 69.7642C301.877 69.7642 309.79 66.4592 312.618 66.0186C315.464 65.5962 322.441 65.1739 324.075 67.0468C324.075 67.0468 328.06 66.1287 329.143 72.7204C330.869 83.1863 323.286 93.3584 323.286 93.3584C323.286 93.3584 323.359 86.5097 321.835 85.61C320.33 84.7103 319.026 86.8585 319.026 86.8585L315.941 87.4094C315.941 87.4094 320.623 77.2923 315.005 76.9068C309.405 76.5579 306.889 78.0819 303.658 77.4943Z" fill="#E8734D"/>
<path d="M319.134 84.1421C319.428 81.1309 324.881 79.9741 324.514 83.1322C324.147 86.2904 321.466 89.32 320.218 89.2282C318.987 89.118 318.914 86.4556 319.134 84.1421Z" fill="#EEA886"/>
<path d="M351.047 127.068C349.266 121.377 347.742 116.878 347.044 116.401C345.851 115.538 336.395 112.949 331.915 111.186C331.768 111.131 331.621 111.076 331.492 111.021C331.088 110.856 330.685 110.709 330.299 110.543C330.097 110.47 329.913 110.397 329.73 110.323C329.62 110.286 329.528 110.25 329.418 110.213C329.326 110.176 329.252 110.139 329.161 110.121L329.142 110.139C328.738 110.58 326.663 112.949 324.185 116.474C319.539 123.066 313.498 133.752 314.435 143.612C314.729 146.77 315.096 151.324 315.72 156.428C315.757 156.832 315.812 157.236 315.867 157.64H336.799C337.056 152.297 337.515 145.264 338.194 142.547C338.194 142.529 338.213 142.51 338.213 142.51C338.213 142.492 338.213 142.474 338.231 142.455C338.231 142.418 338.249 142.4 338.249 142.363C338.249 142.345 338.268 142.327 338.268 142.327V142.308V142.29C338.268 142.29 343.335 150.204 343.592 157.64H356.757C356.096 150.736 354.077 136.837 351.047 127.068Z" fill="#3C4145"/>
<path d="M306.797 111.499C306.797 111.499 305.218 116.769 303.18 129.897C303.106 130.338 303.033 130.779 302.978 131.238C302.978 131.293 302.959 131.348 302.959 131.403C302.904 131.697 302.867 132.009 302.812 132.321C302.812 132.358 302.794 132.394 302.794 132.431C302.757 132.633 302.72 132.853 302.702 133.055C302.629 133.569 302.555 134.102 302.463 134.634C301.692 139.996 300.682 148.515 299.636 157.604H291.355C290.914 155.07 290.492 152.775 290.51 151.215C290.492 151.251 290.474 151.288 290.474 151.325C289.813 153.161 289.078 155.144 288.344 157.09C288.27 157.274 288.215 157.439 288.142 157.623H273.875L288.087 120.46C288.362 120.239 292.034 118.275 294.44 117.118C296.973 115.906 300.15 114.437 302.978 113.133C304.336 112.509 305.603 111.922 306.686 111.426L306.797 111.499Z" fill="#3C4145"/>
<path d="M326.02 124.498L320.549 127.583L322.881 129.97L317.758 157.64H315.83C315.114 152.04 314.71 147.027 314.398 143.612C312.966 128.354 328.187 111.168 329.123 110.121C329.858 110.397 330.647 110.709 331.455 111.021L326.02 124.498Z" fill="#51565C"/>
<path d="M306.87 111.371C306.87 111.371 304.832 118.036 302.445 134.671C301.673 140.033 300.645 148.553 299.617 157.641H298.809L297.744 131.495L300.351 128.667L298.038 125.785L302.995 113.152C304.354 112.528 305.621 111.94 306.704 111.445L306.87 111.371Z" fill="#51565C"/>
<path d="M329.418 110.176L324.882 107.422C324.882 107.422 324.754 109.901 313.535 116.401L316.712 125.379L329.418 110.176Z" fill="#F5E2D9"/>
<path d="M310.562 108.672C310.562 108.672 310.745 111.353 313.555 116.402L307.33 124.499L306.871 111.353L310.562 108.672Z" fill="#F5E2D9"/>
<path d="M313.554 116.402C313.554 116.402 314.766 121.213 314.325 122.572C314.325 122.572 311.681 123.526 309.771 122.333C309.771 122.333 311.13 118.955 313.554 116.402Z" fill="#D44040"/>
<path d="M312.104 132.781C310.837 141.429 310.837 150.188 311.296 157.624H305.989C305.916 156.577 305.842 155.476 305.787 154.337C304.796 137.188 310.855 121.875 310.855 121.875L313.554 121.195C313.554 121.214 312.691 128.797 312.104 132.781Z" fill="#D44040"/>
<path d="M290.694 143.467C290.492 147.58 290.528 151.233 290.528 151.233C290.528 151.252 290.528 151.362 290.51 151.546C290.51 151.472 290.492 151.399 290.492 151.344C289.831 153.18 289.096 155.163 288.362 157.109C288.196 154.869 288.141 152.776 288.196 150.83C288.49 139.299 292.126 133.258 292.126 133.258C291.281 135.259 290.877 139.574 290.694 143.467Z" fill="#2D3133"/>
<path d="M241.046 157.68L224.08 167.007L207.041 140.2L227.642 133.039L241.046 157.68Z" fill="#292C47"/>
<path d="M239.981 156.89L224.099 165.611L208.18 140.53L227.441 133.828L239.981 156.89Z" fill="white"/>
<path d="M245.783 152.192C245.783 152.192 242.827 150.778 241.542 150.043C240.238 149.309 236.915 148.299 236.639 148.042C236.364 147.803 226.761 147.216 226.173 146.702C225.586 146.187 225.017 147.877 227.514 148.428C230.011 148.978 233.481 150.3 233.665 151.274C233.848 152.247 231.113 152.485 230.819 153.275C230.543 154.083 230.892 153.899 231.296 154.064C231.682 154.23 234.565 152.651 235.831 153.091C237.098 153.55 239.026 152.926 239.999 153.257C240.973 153.587 245.691 155.166 245.691 155.166L245.783 152.192Z" fill="#EEA886"/>
<path d="M223.254 163.649C223.254 163.649 220.776 161.409 219.564 160.473C218.37 159.536 216.112 156.782 215.781 156.635C215.451 156.47 211.154 147.638 210.438 147.289C209.741 146.941 211.099 145.747 212.587 147.877C214.074 150.007 216.681 152.761 217.673 152.559C218.664 152.357 217.82 149.676 218.462 149.107C219.105 148.538 219.086 148.942 219.399 149.236C219.711 149.529 219.325 152.871 220.243 153.881C221.161 154.891 221.327 156.966 222.006 157.755C222.685 158.545 226.027 162.364 226.027 162.364L223.254 163.649Z" fill="#EEA886"/>
<path d="M276.686 282.996C276.686 282.996 277.218 286.723 277.291 287.274C277.365 287.825 283.259 286.943 283.259 286.943L283.736 282.5C283.736 282.518 277.42 282.482 276.686 282.996Z" fill="#424773"/>
<path d="M277.235 286.817C277.235 286.817 275.362 289.057 273.563 290.048C271.745 291.022 268.918 291.407 267.834 292.435C267.063 293.17 265.025 296.31 272.535 296.254C280.044 296.199 283.662 296.695 284.47 295.483C285.277 294.271 283.313 286.578 283.313 286.578C283.313 286.578 281.532 287.202 277.235 286.817Z" fill="#292C47"/>
<path d="M234.381 282.996C234.381 282.996 234.913 286.723 234.987 287.274C235.06 287.825 240.954 286.943 240.954 286.943L241.432 282.5C241.45 282.518 235.134 282.482 234.381 282.996Z" fill="#424773"/>
<path d="M234.931 286.816C234.931 286.816 233.058 289.056 231.259 290.047C229.441 291.02 222.794 291.828 221.729 292.838C220.958 293.573 219.673 296.51 230.249 296.235C237.759 296.033 241.376 296.676 242.184 295.464C242.992 294.252 241.027 286.559 241.027 286.559C241.027 286.559 239.338 287.238 234.931 286.816Z" fill="#292C47"/>
<path d="M271.8 187.277C271.8 187.277 277.345 196.091 276.941 204.06C276.519 212.028 278.961 220.731 279.787 229.049C280.724 238.322 284.525 260.282 284.653 265.257C284.8 270.215 284.066 286.061 284.066 286.061L276.464 286.226C276.464 286.226 270.074 247.833 268.422 243.903C266.769 239.992 258.562 212.047 258.286 208.925C257.974 205.804 271.8 187.277 271.8 187.277Z" fill="#292C47"/>
<path d="M242.607 188.471C242.607 188.471 238.42 210.302 237.87 215.186C237.319 220.07 236.952 238.781 236.676 241.828C236.401 244.876 234.84 281.709 233.371 286.226H243.103C243.103 286.226 250.576 259.455 250.576 246.786C250.576 234.117 256.341 219.244 260.068 210.89C263.796 202.535 272.315 202.333 274.61 186.837C274.592 186.837 245.691 183.55 242.607 188.471Z" fill="#292C47"/>
<path d="M262.548 113.191C262.548 113.191 255.112 110.419 251.678 116.074C248.245 121.729 248.575 133.095 252.321 134.49C256.066 135.886 261.703 135.151 263.631 131.608C265.559 128.064 267.285 122.941 267.212 119.508C267.12 116.074 264.494 114.183 262.548 113.191Z" fill="#EEA886"/>
<path d="M253.127 134.746C253.127 134.746 253.439 136.747 252.925 137.739C252.411 138.73 262.565 138.749 262.565 138.749C262.565 138.749 263.391 133.369 264.952 128.815C266.512 124.28 253.127 134.746 253.127 134.746Z" fill="#EEA886"/>
<path d="M264.952 128.835C264.952 128.835 264.254 129.992 261.39 129.551C258.526 129.111 255.037 125.291 253.844 124.869C252.65 124.447 252.632 123.749 252.632 123.749L251.879 124.851L250.612 124.924C250.612 124.924 251.769 121.527 250.024 120.132C248.28 118.737 251.842 109.115 261.023 112.31C261.023 112.31 268.073 114.256 267.816 118.259C267.559 122.262 266.531 126.834 264.952 128.835Z" fill="#3A3F47"/>
<path d="M252.32 137.629C252.32 137.629 252.357 135.738 253.202 135.554C254.065 135.37 262.676 134.544 263.723 134.966V137.17C263.723 137.17 261.703 138.418 252.32 137.629Z" fill="#E2D2CA"/>
<path d="M252.833 122.28C252.998 121.6 254.706 119.691 255.367 121.747C256.028 123.804 254.375 126.576 253.457 126.338C252.521 126.099 252.411 123.987 252.833 122.28Z" fill="#EEA886"/>
<path d="M218.15 159.977C218.15 159.977 218.168 159.977 218.15 159.977C218.113 160.013 218.095 160.013 218.15 159.977Z" fill="#323657"/>
<path d="M278.061 208.284C278.061 208.284 273.49 209.624 265.704 210.487C257.919 211.35 238.456 210.175 238.346 209.257C238.218 208.339 242.533 175.013 242.294 173.287C242.055 171.58 241.908 165.447 241.908 165.447C241.816 167.118 240.109 173.967 238.052 177.694C237.3 179.034 234.802 183.276 233.609 182.303C227.788 177.657 218.755 160.122 218.186 159.975C218.663 159.773 222.464 158.011 222.996 157.845C223.455 157.699 227.66 162.142 230.212 164.896C231.351 166.126 232.158 167.026 232.158 167.026C232.893 165.374 235.574 154.944 236.4 151.327C238.273 143.193 237.997 142.844 237.997 142.844C243.689 141.118 252.337 137.611 252.337 137.611L263.74 137.152C263.74 137.152 274.206 139.466 278.337 141.32C278.722 141.504 278.722 150.666 279.806 153.072L276.391 160.287C276.391 160.287 274.408 174.573 274.004 180.925C273.802 183.845 278.061 208.284 278.061 208.284Z" fill="#FF6600"/>
<path d="M280.266 164.97C279.972 165.924 278.614 166.751 277.732 167.099C277.163 167.32 276.539 167.393 275.915 167.283L275.474 167.191L267.652 165.741C267.652 165.741 265.944 146.039 278.338 141.32C278.65 141.43 283.002 156.156 280.266 164.97Z" fill="#FF6600"/>
<path d="M277.731 167.099C277.162 167.319 276.538 167.393 275.913 167.283L275.473 167.191L276.244 157.129L277.731 167.099Z" fill="#AB9546"/>
<path d="M232.141 167.028L231.186 171.068C231.186 171.068 230.158 167.01 230.194 164.898C231.333 166.129 232.141 167.028 232.141 167.028Z" fill="#AB9546"/>
<path d="M264.658 113.853C264.658 113.853 274.408 112.623 264.823 128.928L264.658 113.853Z" fill="#3A3F47"/>
<path d="M214.882 138.77L213.891 137.062L221.712 134.363L222.704 136.053L214.882 138.77Z" fill="#292C47"/>
<path d="M191.674 160.083H201.608L198.578 153.785H188.645L191.674 160.083Z" fill="url(#paint12_linear_18671_394018)"/>
<path d="M187.028 160.083H189.396L186.348 153.785H183.998L187.028 160.083Z" fill="url(#paint13_linear_18671_394018)"/>
<defs>
<linearGradient id="paint0_linear_18671_394018" x1="195.086" y1="216.494" x2="187.523" y2="79.4164" gradientUnits="userSpaceOnUse">
<stop stop-color="#D1D7E0"/>
<stop offset="1" stop-color="#EBEBFF"/>
</linearGradient>
<linearGradient id="paint1_linear_18671_394018" x1="318.799" y1="254.71" x2="318.799" y2="113.587" gradientUnits="userSpaceOnUse">
<stop stop-color="#D1D7E0"/>
<stop offset="1" stop-color="#EBEBFF"/>
</linearGradient>
<linearGradient id="paint2_linear_18671_394018" x1="-0.0112187" y1="295.485" x2="363.809" y2="295.485" gradientUnits="userSpaceOnUse">
<stop offset="0.00520833" stop-color="#1A2257"/>
<stop offset="1" stop-color="#5E60F2"/>
</linearGradient>
<linearGradient id="paint3_linear_18671_394018" x1="188.168" y1="167.564" x2="188.168" y2="64.3737" gradientUnits="userSpaceOnUse">
<stop stop-color="#D1D7E0"/>
<stop offset="1" stop-color="#EBEBFF"/>
</linearGradient>
<linearGradient id="paint4_linear_18671_394018" x1="82.4623" y1="226.655" x2="59.0723" y2="226.655" gradientUnits="userSpaceOnUse">
<stop stop-color="#FF6600"/>
<stop offset="1" stop-color="#FA973C"/>
</linearGradient>
<linearGradient id="paint5_linear_18671_394018" x1="64.2883" y1="245.962" x2="21.7659" y2="245.962" gradientUnits="userSpaceOnUse">
<stop stop-color="#FF6600"/>
<stop offset="1" stop-color="#FA973C"/>
</linearGradient>
<linearGradient id="paint6_linear_18671_394018" x1="60.6538" y1="252.146" x2="28.7379" y2="252.146" gradientUnits="userSpaceOnUse">
<stop stop-color="#FF6600"/>
<stop offset="1" stop-color="#FA973C"/>
</linearGradient>
<linearGradient id="paint7_linear_18671_394018" x1="99.2324" y1="219.726" x2="51.3051" y2="219.726" gradientUnits="userSpaceOnUse">
<stop stop-color="#FF6600"/>
<stop offset="1" stop-color="#FA973C"/>
</linearGradient>
<linearGradient id="paint8_linear_18671_394018" x1="70.6972" y1="272.042" x2="42.7924" y2="188.327" gradientUnits="userSpaceOnUse">
<stop stop-color="#FF6600"/>
<stop offset="1" stop-color="#FFAE64"/>
</linearGradient>
<linearGradient id="paint9_linear_18671_394018" x1="49.1061" y1="326.714" x2="63.0585" y2="266.567" gradientUnits="userSpaceOnUse">
<stop stop-color="#C9C4C1"/>
<stop offset="1" stop-color="#FFF6DE"/>
</linearGradient>
<linearGradient id="paint10_linear_18671_394018" x1="46.4087" y1="279.777" x2="80.7078" y2="279.777" gradientUnits="userSpaceOnUse">
<stop stop-color="#C9C4C1"/>
<stop offset="1" stop-color="#FFF6DE"/>
</linearGradient>
<linearGradient id="paint11_linear_18671_394018" x1="281.683" y1="80.3249" x2="281.683" y2="22.1963" gradientUnits="userSpaceOnUse">
<stop stop-color="#D1D7E0"/>
<stop offset="1" stop-color="#EBEBFF"/>
</linearGradient>
<linearGradient id="paint12_linear_18671_394018" x1="188.639" y1="156.939" x2="201.614" y2="156.939" gradientUnits="userSpaceOnUse">
<stop stop-color="#D1D7E0"/>
<stop offset="1" stop-color="#EBEBFF"/>
</linearGradient>
<linearGradient id="paint13_linear_18671_394018" x1="183.989" y1="156.939" x2="189.397" y2="156.939" gradientUnits="userSpaceOnUse">
<stop stop-color="#D1D7E0"/>
<stop offset="1" stop-color="#EBEBFF"/>
</linearGradient>
</defs>
</svg>
