<svg width="26" height="26" viewBox="0 0 26 26" fill="none" xmlns="http://www.w3.org/2000/svg">
<path d="M16.7588 6.89906C16.7588 6.38867 16.4041 5.97491 15.9667 5.97491H1.70847C1.27099 5.97491 0.916347 6.38867 0.916347 6.89906C0.916347 7.40945 1.27099 7.8232 1.70847 7.8232H15.9667C16.4041 7.8232 16.7588 7.40945 16.7588 6.89906Z" fill="#172B4D"/>
<path d="M16.7588 12.4737C16.7588 11.9633 16.4041 11.5496 15.9667 11.5496H1.70847C1.27099 11.5496 0.916347 11.9633 0.916347 12.4737C0.916347 12.9841 1.27099 13.3978 1.70847 13.3978H15.9667C16.4041 13.3978 16.7588 12.9841 16.7588 12.4737Z" fill="#172B4D"/>
<path d="M15.9667 17.1242C16.4041 17.1242 16.7588 17.5379 16.7588 18.0483C16.7588 18.5587 16.4041 18.9725 15.9667 18.9725H1.70847C1.27099 18.9725 0.916347 18.5587 0.916347 18.0483C0.916347 17.5379 1.27099 17.1242 1.70847 17.1242H15.9667Z" fill="#172B4D"/>
<path d="M20.4551 8.89961L21.5027 7.82324L25.9999 12.4439L21.5027 17.0647L20.4551 15.9883L23.9047 12.444L20.4551 8.89961Z" fill="#172B4D"/>
</svg>
