<svg width="26" height="26" viewBox="0 0 26 26" fill="none" xmlns="http://www.w3.org/2000/svg">
<path d="M9.30664 6.92236C9.30664 6.41295 9.6606 6 10.0972 6H24.3279C24.7645 6 25.1185 6.41295 25.1185 6.92236C25.1185 7.43176 24.7645 7.84472 24.3279 7.84472H10.0972C9.6606 7.84472 9.30664 7.43176 9.30664 6.92236Z" fill="#172B4D"/>
<path d="M9.30664 12.4862C9.30664 11.9768 9.6606 11.5639 10.0972 11.5639H24.3279C24.7645 11.5639 25.1185 11.9768 25.1185 12.4862C25.1185 12.9956 24.7645 13.4086 24.3279 13.4086H10.0972C9.6606 13.4086 9.30664 12.9956 9.30664 12.4862Z" fill="#172B4D"/>
<path d="M10.0972 17.1277C9.6606 17.1277 9.30664 17.5407 9.30664 18.0501C9.30664 18.5595 9.6606 18.9725 10.0972 18.9725H24.3279C24.7645 18.9725 25.1185 18.5595 25.1185 18.0501C25.1185 17.5407 24.7645 17.1277 24.3279 17.1277H10.0972Z" fill="#172B4D"/>
<path d="M5.61768 8.91901L4.5721 7.84473L0.0835269 12.4565L4.57208 17.0683L5.61765 15.994L2.1747 12.4565L5.61768 8.91901Z" fill="#172B4D"/>
</svg>
