<svg width="250" height="53" viewBox="0 0 250 53" fill="none" xmlns="http://www.w3.org/2000/svg">
<path fill-rule="evenodd" clip-rule="evenodd" d="M23.5663 31.9973H26.6246C26.6246 31.9973 29.0532 21.6326 28.4236 19.3916C27.7939 16.8704 21.7673 17.1506 21.4075 19.5783C21.1377 21.726 22.8467 29.3828 23.5663 31.9973Z" fill="#5CA2D8"/>
<path fill-rule="evenodd" clip-rule="evenodd" d="M25.0039 17.793C26.8029 17.793 28.332 18.54 28.332 19.4737C28.332 20.4075 26.8029 21.1545 25.0039 21.1545C23.2049 21.1545 21.6758 20.4075 21.6758 19.4737C21.6758 18.6334 23.115 17.793 25.0039 17.793Z" fill="#75B4E2"/>
<path fill-rule="evenodd" clip-rule="evenodd" d="M21.7556 21.6145C21.7556 21.6145 21.6656 20.9608 22.3852 21.0542C22.3852 21.0542 23.4646 21.6145 24.1842 21.5211C24.1842 21.5211 25.6234 21.8012 26.9726 21.241C26.9726 21.241 27.6922 20.9608 27.9621 21.0542C27.9621 21.0542 28.3219 21.0542 28.2319 21.6145C28.2319 21.6145 26.7927 30.7653 26.1631 31.2322C26.1631 31.2322 24.454 31.8858 23.7344 30.8587C23.6445 30.8587 21.6656 21.8012 21.7556 21.6145Z" fill="#75B4E2"/>
<g opacity="0.5">
<path opacity="0.5" fill-rule="evenodd" clip-rule="evenodd" d="M21.4036 44.376C21.7634 46.8038 27.79 47.0839 28.4197 44.5627C28.9594 42.3217 26.6207 31.957 26.6207 31.957H23.5624C22.8428 34.5715 21.1338 42.2284 21.4036 44.376Z" fill="url(#paint0_linear_18881_436208)"/>
<path opacity="0.5" fill-rule="evenodd" clip-rule="evenodd" d="M23.6586 33.0832C24.3782 32.1494 26.0872 32.7097 26.0872 32.7097C26.7168 33.0832 28.156 42.3274 28.156 42.3274C28.246 42.8876 27.8862 42.8876 27.8862 42.8876C27.5264 42.981 26.8968 42.7009 26.8968 42.7009C25.5475 42.1406 24.1083 42.4207 24.1083 42.4207C23.3887 42.4207 22.3093 42.8876 22.3093 42.8876C21.6797 42.981 21.6797 42.3274 21.6797 42.3274C21.6797 42.1406 23.6586 33.0832 23.6586 33.0832Z" fill="url(#paint1_linear_18881_436208)"/>
</g>
<path fill-rule="evenodd" clip-rule="evenodd" d="M21.119 33.4969C20.9092 33.4243 20.6764 33.4736 20.5139 33.6249L10.5799 42.8796C10.392 43.0546 10.1048 43.0673 9.90221 42.9096V42.9096C9.58169 42.66 9.11147 42.8552 9.0619 43.2584L8.74707 45.8184C8.69417 46.2486 9.10077 46.5912 9.51572 46.4661L13.3491 45.3108C13.6461 45.2213 13.672 44.8108 13.3885 44.6847V44.6847C13.1765 44.5903 13.1225 44.314 13.2836 44.1468L22.2853 34.8021C22.5893 34.4866 22.4635 33.9622 22.0494 33.8189L21.119 33.4969Z" fill="#FFCC00"/>
<path fill-rule="evenodd" clip-rule="evenodd" d="M18.2336 30.2644C18.2478 29.9235 17.9753 29.6393 17.6341 29.6393H3.80353C3.54098 29.6393 3.32814 29.4264 3.32814 29.1639V29.1639C3.32814 28.7961 2.92834 28.5676 2.61143 28.7543L0.74123 29.8562C0.381601 30.0681 0.342842 30.5733 0.665944 30.8376L2.47797 32.3196C2.67403 32.48 2.96834 32.3405 2.96834 32.0872V32.0872C2.96834 31.9214 3.10277 31.7869 3.2686 31.7869H17.5944C17.916 31.7869 18.1804 31.5334 18.1939 31.212L18.2336 30.2644Z" fill="#FF543A"/>
<path fill-rule="evenodd" clip-rule="evenodd" d="M20.7533 27.9159C20.5112 28.0475 20.2106 27.9973 20.0244 27.7942L15.2951 22.6352C15.1559 22.4833 14.9156 22.486 14.7799 22.641V22.641C14.565 22.8865 14.161 22.7252 14.174 22.3993L14.1995 21.764C14.213 21.4277 14.5133 21.1761 14.8468 21.2217L16.9633 21.5108C17.1511 21.5364 17.1845 21.7939 17.0094 21.8666V21.8666C16.8847 21.9184 16.855 22.0817 16.9536 22.174L21.6233 26.5447C21.9221 26.8243 21.8594 27.3144 21.4999 27.5099L20.7533 27.9159Z" fill="#B5B5B5"/>
<path fill-rule="evenodd" clip-rule="evenodd" d="M29.8522 28.118C30.0766 28.1957 30.3256 28.1337 30.4875 27.9599L35.2079 22.8907C35.3441 22.7444 35.5611 22.7069 35.7386 22.799V22.799C36.0912 22.9821 36.4888 22.6463 36.3673 22.268L36.2219 21.8151C36.1329 21.5379 35.8578 21.3647 35.5694 21.404L33.5273 21.683C33.2896 21.7154 33.2496 22.0422 33.4723 22.1312V22.1312C33.6326 22.1952 33.6705 22.4049 33.5427 22.5209L28.8114 26.8185C28.4741 27.1248 28.588 27.6806 29.0187 27.8296L29.8522 28.118Z" fill="#9E0FB9"/>
<path fill-rule="evenodd" clip-rule="evenodd" d="M29.5556 33.7C29.7853 33.5609 30.0795 33.5914 30.2758 33.7746L40.1901 43.0287C40.4297 43.2523 40.8128 43.2071 40.9937 42.9339V42.9339C41.245 42.5545 41.826 42.6472 41.9467 43.0859L42.7871 46.1395C42.9127 46.5955 42.4858 47.0107 42.0335 46.8726L37.7328 45.5595C37.3988 45.4575 37.3097 45.0266 37.5758 44.8005V44.8005C37.7756 44.6308 37.7845 44.3256 37.595 44.1446L28.3516 35.3133C28.0661 35.0405 28.1175 34.5709 28.4553 34.3663L29.5556 33.7Z" fill="#36D64F"/>
<path fill-rule="evenodd" clip-rule="evenodd" d="M31.7975 30.4468C31.7791 30.1033 32.0527 29.8147 32.3966 29.8147H46.1999C46.4682 29.8147 46.6807 29.5881 46.6635 29.3204V29.3204C46.6393 28.9422 47.0535 28.6956 47.3743 28.8972L49.2706 30.0887C49.6307 30.3149 49.6476 30.8336 49.3031 31.0829L47.7147 32.2321C47.4029 32.4577 46.9619 32.2903 46.8784 31.9146V31.9146C46.824 31.6697 46.6068 31.4955 46.3559 31.4955H32.4224C32.1035 31.4955 31.8403 31.246 31.8232 30.9275L31.7975 30.4468Z" fill="#0078E6"/>
<path fill-rule="evenodd" clip-rule="evenodd" d="M22.1329 9.65102L21.1435 8.34375C17.0058 10.4914 18.9847 15.4403 18.9847 15.4403L20.3339 14.4132C19.5244 10.3046 22.1329 9.65102 22.1329 9.65102Z" fill="#FF851B"/>
<path fill-rule="evenodd" clip-rule="evenodd" d="M20.4082 6.47913L19.4188 5.17188C13.0324 8.81352 15.8208 17.124 15.8208 17.124L17.5298 16.1902C15.1911 9.74728 20.4082 6.47913 20.4082 6.47913Z" fill="#FF851B"/>
<path fill-rule="evenodd" clip-rule="evenodd" d="M30.6613 5.17188L29.6719 6.47913C29.6719 6.47913 34.799 9.84065 32.5503 16.0968L34.2593 17.0306C34.2593 17.0306 37.0477 8.81353 30.6613 5.17188Z" fill="#FF851B"/>
<path fill-rule="evenodd" clip-rule="evenodd" d="M28.9523 8.34375L27.9629 9.65102C27.9629 9.65102 30.4815 10.3046 29.7619 14.3198L31.1111 15.3469C31.1111 15.3469 33.09 10.4914 28.9523 8.34375Z" fill="#FF851B"/>
<path d="M24.9925 16.8607C26.9796 16.8607 28.5905 15.1884 28.5905 13.1257C28.5905 11.0629 26.9796 9.39062 24.9925 9.39062C23.0054 9.39062 21.3945 11.0629 21.3945 13.1257C21.3945 15.1884 23.0054 16.8607 24.9925 16.8607Z" fill="#FF851B"/>
<path fill-rule="evenodd" clip-rule="evenodd" d="M185.838 10.6611C185.838 9.556 186.733 8.66016 187.839 8.66016H214.966C216.072 8.66016 216.967 9.556 216.967 10.6611C216.967 11.7662 216.072 12.662 214.966 12.662H187.839C186.733 12.662 185.838 11.7662 185.838 10.6611ZM177.834 25.4179C177.834 24.3128 178.73 23.417 179.835 23.417H198.305C199.41 23.417 200.306 24.3128 200.306 25.4179C200.306 26.523 199.41 27.4189 198.305 27.4189H179.835C178.73 27.4189 177.834 26.523 177.834 25.4179ZM169.529 40.2041C169.529 39.099 170.425 38.2032 171.53 38.2032H198.658C199.763 38.2032 200.659 39.099 200.659 40.2041C200.659 41.3092 199.763 42.205 198.658 42.205H171.53C170.425 42.205 169.529 41.3092 169.529 40.2041Z" fill="#FFCC00"/>
<path fill-rule="evenodd" clip-rule="evenodd" d="M249.327 10.4258C249.327 11.5309 248.431 12.4267 247.326 12.4267L229.958 12.4267L222.03 26.4487C221.486 27.4107 220.265 27.7496 219.303 27.2057C218.341 26.6618 218.002 25.441 218.546 24.4791L227.049 9.44098C227.404 8.8131 228.069 8.42489 228.791 8.42489L247.326 8.42488C248.431 8.42489 249.327 9.32073 249.327 10.4258Z" fill="#FF851B"/>
<path fill-rule="evenodd" clip-rule="evenodd" d="M209.534 40.3575C209.534 39.2525 210.43 38.3566 211.535 38.3566L232.39 38.3566L240.296 24.0081C240.829 23.0403 242.046 22.688 243.014 23.2213C243.982 23.7547 244.334 24.9716 243.801 25.9395L235.324 41.3232C234.972 41.9618 234.301 42.3585 233.572 42.3585L211.535 42.3585C210.43 42.3585 209.534 41.4626 209.534 40.3575Z" fill="#FF851B"/>
<path fill-rule="evenodd" clip-rule="evenodd" d="M65.4785 10.7197C65.4785 9.6146 66.3744 8.71875 67.4794 8.71875H98.0391C98.7646 8.71875 99.4333 9.11148 99.7866 9.74512C100.14 10.3788 100.123 11.154 99.7414 11.7713L90.137 27.3185L97.8378 39.6753C98.4223 40.6132 98.1358 41.8473 97.1979 42.4318C96.2601 43.0162 95.026 42.7298 94.4415 41.7919L86.084 28.3814C85.6818 27.736 85.6802 26.9185 86.0799 26.2715L94.451 12.7206H67.4794C66.3744 12.7206 65.4785 11.8248 65.4785 10.7197Z" fill="#FF543A"/>
<path fill-rule="evenodd" clip-rule="evenodd" d="M67.4794 32.4609C68.5845 32.4609 69.4804 33.3568 69.4804 34.4619V40.7375C69.4804 41.8426 68.5845 42.7384 67.4794 42.7384C66.3744 42.7384 65.4785 41.8426 65.4785 40.7375V34.4619C65.4785 33.3568 66.3744 32.4609 67.4794 32.4609Z" fill="#FF543A"/>
<path fill-rule="evenodd" clip-rule="evenodd" d="M126.564 8.66016C127.284 8.66016 127.949 9.04765 128.305 9.6746L145.313 39.6885C145.857 40.65 145.52 41.871 144.558 42.4159C143.597 42.9607 142.376 42.6229 141.831 41.6615L126.564 14.7197L111.297 41.6615C110.752 42.6229 109.531 42.9607 108.569 42.4159C107.608 41.871 107.27 40.65 107.815 39.6885L124.823 9.6746C125.178 9.04765 125.843 8.66016 126.564 8.66016Z" fill="#36D64F"/>
<path fill-rule="evenodd" clip-rule="evenodd" d="M157.571 42.6992C156.85 42.6992 156.185 42.3117 155.83 41.6848L138.822 11.6708C138.277 10.7094 138.615 9.48833 139.577 8.94351C140.538 8.39869 141.759 8.73644 142.304 9.69788L157.571 36.6397L172.838 9.69788C173.383 8.73644 174.604 8.39869 175.565 8.94351C176.527 9.48833 176.864 10.7094 176.32 11.6708L159.312 41.6848C158.956 42.3117 158.292 42.6992 157.571 42.6992Z" fill="#0078E6"/>
<defs>
<linearGradient id="paint0_linear_18881_436208" x1="24.9492" y1="31.9599" x2="24.9492" y2="46.3373" gradientUnits="userSpaceOnUse">
<stop offset="0.2709" stop-color="#2483C5"/>
<stop offset="0.6601" stop-color="#2483C5" stop-opacity="0"/>
</linearGradient>
<linearGradient id="paint1_linear_18881_436208" x1="24.9819" y1="32.5415" x2="24.9819" y2="42.9529" gradientUnits="userSpaceOnUse">
<stop offset="0.2709" stop-color="#B6E2EC" stop-opacity="0.5"/>
<stop offset="0.6601" stop-color="#2483C5" stop-opacity="0"/>
</linearGradient>
</defs>
</svg>
