<svg width="62" height="62" viewBox="0 0 62 62" fill="none" xmlns="http://www.w3.org/2000/svg">
<path d="M26.4598 42.1463L15.4997 31.1861L19.1531 27.5328L26.4598 34.8395L41.0734 20.226L44.7268 23.8794L26.4598 42.1463Z" fill="#75B356"/>
<path fill-rule="evenodd" clip-rule="evenodd" d="M2.58301 31.0026C2.58301 15.3085 15.3056 2.58594 30.9997 2.58594C46.6938 2.58594 59.4163 15.3085 59.4163 31.0026C59.4163 46.6967 46.6938 59.4193 30.9997 59.4193C15.3056 59.4193 2.58301 46.6967 2.58301 31.0026ZM30.9997 54.2526C18.1591 54.2526 7.74967 43.8432 7.74967 31.0026C7.74967 18.162 18.1591 7.7526 30.9997 7.7526C43.8403 7.7526 54.2497 18.162 54.2497 31.0026C54.2497 43.8432 43.8403 54.2526 30.9997 54.2526Z" fill="#75B356"/>
</svg>
